<!DOCTYPE svg PUBLIC "-//W3C//DTD SVG 1.1//EN" "http://www.w3.org/Graphics/SVG/1.1/DTD/svg11.dtd">
<!-- Uploaded to: SVG Repo, www.svgrepo.com, Transformed by: SVG Repo Mixer Tools -->
<svg width="81px" height="81px" viewBox="0 0 24.00 24.00" xmlns="http://www.w3.org/2000/svg" fill="none">
<g id="SVGRepo_bgCarrier" stroke-width="0"/>
<g id="SVGRepo_tracerCarrier" stroke-linecap="round" stroke-linejoin="round"/>
<g id="SVGRepo_iconCarrier">
<path stroke="#ffffff" stroke-linecap="round" stroke-linejoin="round" stroke-width="0.9359999999999999" d="M12 19v-8m-3 7v-7c0-1 .6-3 3-3s3 2 3 3v6m-9-3v-3c0-2 1.2-6 6-6s6 4 6 6m0 4v-1M6.001 17H6M7 3H5a2 2 0 0 0-2 2v2m0 10v2a2 2 0 0 0 2 2h2m10 0h2a2 2 0 0 0 2-2v-2m0-10V5a2 2 0 0 0-2-2h-2"/>
</g>
</svg>